<svg xmlns="http://www.w3.org/2000/svg" fill-rule="evenodd" stroke-linecap="round" stroke-linejoin="round" stroke-miterlimit="1.5" clip-rule="evenodd" viewBox="0 0 293 293">
  <path fill="#fff" stroke="#d8d8d8" stroke-width="3" d="M291.147 59.429c0-31.972-25.957-57.929-57.93-57.929H59.429C27.457 1.5 1.5 27.457 1.5 59.429v173.789c0 31.977 25.957 57.927 57.929 57.927h173.788c31.973 0 57.93-25.95 57.93-57.927V59.429z"/>
  <path fill="#4d5cc1" d="M270.329 71.919c0-27.376-22.226-49.603-49.603-49.603H71.919c-27.377 0-49.602 22.227-49.602 49.603v148.807c0 27.376 22.225 49.602 49.602 49.602h148.807c27.377 0 49.603-22.226 49.603-49.602V71.919z"/>
</svg>
